<mxfile host="app.diagrams.net" modified="2024-04-02T09:37:35.138Z" agent="Mozilla/5.0 (X11; Linux x86_64; rv:124.0) Gecko/20100101 Firefox/124.0" version="24.0.2" etag="d9E1Oy-8MhgTw1ss1Xkl" type="github">
  <diagram name="Page-1" id="F8p30DhLNYIjWleZveJz">
    <mxGraphModel>
      <root>
        <mxCell id="0" />
        <mxCell id="1" parent="0" />
      </root>
    </mxGraphModel>
  </diagram>
</mxfile>
